<svg xmlns="http://www.w3.org/2000/svg" width="64" height="64" viewBox="0 0 64 64"><path fill="#0d0d0d" d="M16 12.04V6c0-3.3-2.7-6-6-6S4 2.7 4 6v6.04a9.94 9.94 0 0 0 0 15.92V58c0 3.3 2.7 6 6 6s6-2.7 6-6V27.96a9.94 9.94 0 0 0 0-15.92zM8 6c0-1.1.9-2 2-2a2 2 0 0 1 2 2v4.2a9.42 9.42 0 0 0-2-.2c-.68 0-1.36.06-2 .2zm4 52a2 2 0 0 1-2 2 2 2 0 0 1-2-2V29.8c.64.12 1.32.2 2 .2.68 0 1.36-.08 2-.2zm3.74-36.32c-.04.1-.08.2-.1.32-.2.52-.44 1.02-.76 1.46l-.04.04c-.34.48-.76.9-1.22 1.26h-.02c-.48.38-1.02.66-1.6.86a5.56 5.56 0 0 1-4 0 5.38 5.38 0 0 1-1.6-.86h-.02a6.07 6.07 0 0 1-1.22-1.26l-.04-.04A6.32 6.32 0 0 1 4.36 22l-.1-.32a5.79 5.79 0 0 1 0-3.36l.1-.32c.2-.52.44-1.02.76-1.48l.04-.02c.34-.48.76-.9 1.22-1.26.02 0 .02-.02.02-.02A6 6 0 0 1 10 14a6 6 0 0 1 4.84 2.5l.04.02c.32.46.56.96.76 1.48.02.1.06.2.1.32a5.79 5.79 0 0 1 0 3.36zM60 12.04V6c0-3.3-2.7-6-6-6s-6 2.7-6 6v6.04a9.94 9.94 0 0 0 0 15.92V58c0 3.3 2.7 6 6 6s6-2.7 6-6V27.96a9.94 9.94 0 0 0 0-15.92zM52 6c0-1.1.9-2 2-2a2 2 0 0 1 2 2v4.2a9.42 9.42 0 0 0-2-.2c-.68 0-1.36.06-2 .2zm4 52a2 2 0 0 1-2 2 2 2 0 0 1-2-2V29.8c.64.12 1.32.2 2 .2.68 0 1.36-.08 2-.2zm3.74-36.32c-.04.1-.08.2-.1.32-.2.52-.44 1.02-.76 1.46l-.04.04c-.34.48-.76.9-1.22 1.26h-.02c-.48.38-1.02.66-1.6.86a5.56 5.56 0 0 1-4 0 5.38 5.38 0 0 1-1.6-.86h-.02a6.07 6.07 0 0 1-1.22-1.26l-.04-.04a6.32 6.32 0 0 1-.76-1.46l-.1-.32a5.79 5.79 0 0 1 0-3.36l.1-.32c.2-.52.44-1.02.76-1.48l.04-.02c.34-.48.76-.9 1.22-1.26.02 0 .02-.02.02-.02A6 6 0 0 1 54 14a6 6 0 0 1 4.84 2.5l.04.02c.32.46.56.96.76 1.48.02.1.06.2.1.32a5.79 5.79 0 0 1 0 3.36zM38 36.04V6c0-3.3-2.7-6-6-6s-6 2.7-6 6v30.04a9.94 9.94 0 0 0 0 15.92V58c0 3.3 2.7 6 6 6s6-2.7 6-6v-6.04a9.94 9.94 0 0 0 0-15.92zM30 6c0-1.1.9-2 2-2a2 2 0 0 1 2 2v28.2a9.42 9.42 0 0 0-2-.2c-.68 0-1.36.06-2 .2zm4 52a2 2 0 0 1-2 2 2 2 0 0 1-2-2v-4.2c.64.12 1.32.2 2 .2.68 0 1.36-.08 2-.2zm3.74-12.32c-.04.1-.08.2-.1.32-.2.52-.44 1.02-.76 1.46l-.04.04c-.34.48-.76.9-1.22 1.26h-.02c-.48.38-1.02.66-1.6.86a5.56 5.56 0 0 1-4 0 5.38 5.38 0 0 1-1.6-.86h-.02a6.07 6.07 0 0 1-1.22-1.26l-.04-.04a6.32 6.32 0 0 1-.76-1.46 5.9 5.9 0 0 1-.36-2c0-.6.1-1.14.26-1.68.04-.12.08-.22.1-.32.2-.52.44-1.02.76-1.48l.04-.02c.34-.48.76-.9 1.22-1.26.02 0 .02-.02.02-.02A6 6 0 0 1 32 38a6 6 0 0 1 4.84 2.5l.04.02c.32.46.56.96.76 1.48.02.1.06.2.1.32a5.79 5.79 0 0 1 0 3.36z"/></svg>